<!DOCTYPE svg PUBLIC "-//W3C//DTD SVG 1.1//EN" "http://www.w3.org/Graphics/SVG/1.1/DTD/svg11.dtd">
<!-- Uploaded to: SVG Repo, www.svgrepo.com, Transformed by: SVG Repo Mixer Tools -->
<svg fill="#10B981" version="1.1" id="Capa_1" xmlns="http://www.w3.org/2000/svg" xmlns:xlink="http://www.w3.org/1999/xlink" width="800px" height="800px" viewBox="0 0 176.708 176.707" xml:space="preserve" stroke="#10B981">
<g id="SVGRepo_bgCarrier" stroke-width="0"/>
<g id="SVGRepo_tracerCarrier" stroke-linecap="round" stroke-linejoin="round"/>
<g id="SVGRepo_iconCarrier"> <g> <g> <path d="M161.423,11.661H15.281C6.877,11.661,0,18.544,0,26.941v97.326c0,8.409,6.884,15.283,15.281,15.283h66.837v13.025H35.354 l-6.235,6.235v6.235h118.47v-6.235l-6.234-6.235H94.588v-13.019h66.835c8.415,0,15.284-6.881,15.284-15.284V26.941 C176.708,18.544,169.838,11.661,161.423,11.661z M170.472,105.567c0,4.993-4.056,9.049-9.049,9.049H15.281 c-4.987,0-9.045-4.056-9.045-9.049V26.941c0-4.987,4.058-9.045,9.045-9.045h146.143c4.993,0,9.049,4.058,9.049,9.045V105.567z"/> <path d="M117.411,45.955l-6.089,2.262c-0.858,0.311-1.875,0.162-2.302-0.311c-0.396-0.475-1.254-2.332-0.864-3.139l2.728-5.892 c0.359-0.828,0-1.796-0.815-2.177l-13.342-6.147c-0.804-0.369-1.784-0.006-2.161,0.792l-2.726,5.925 c-0.387,0.804-1.196,1.446-1.814,1.397c-0.63-0.027-2.558-0.725-2.868-1.574l-2.253-6.116c-0.311-0.834-1.251-1.267-2.095-0.965 L69.03,35.098c-0.847,0.317-1.291,1.255-0.978,2.107l2.25,6.116c0.316,0.825,0.18,1.86-0.298,2.265 c-0.469,0.399-2.32,1.263-3.142,0.898l-5.906-2.737c-0.804-0.369-1.784-0.006-2.159,0.81l-6.153,13.356 c-0.38,0.804-0.012,1.781,0.804,2.149l5.895,2.731c0.822,0.362,1.446,1.184,1.428,1.814c-0.058,0.625-0.761,2.533-1.592,2.85 l-6.116,2.25c-0.828,0.307-1.27,1.248-0.965,2.098l5.087,13.804c0.305,0.822,1.267,1.276,2.095,0.959l6.11-2.262 c0.843-0.313,1.873-0.174,2.284,0.311c0.405,0.475,1.266,2.316,0.892,3.133l-2.731,5.894c-0.38,0.816-0.012,1.785,0.792,2.174 l13.362,6.145c0.816,0.384,1.809,0.024,2.162-0.779l2.725-5.919c0.381-0.804,1.203-1.437,1.827-1.4 c0.618,0.036,2.533,0.73,2.85,1.583l2.253,6.107c0.298,0.834,1.251,1.285,2.104,0.969l13.786-5.085 c0.84-0.316,1.278-1.254,0.956-2.106l-2.247-6.107c-0.323-0.841-0.183-1.869,0.28-2.277c0.499-0.408,2.338-1.261,3.166-0.896 l5.895,2.734c0.828,0.371,1.79,0.012,2.168-0.816l6.138-13.341c0.39-0.816,0.024-1.781-0.792-2.156l-5.895-2.725 c-0.815-0.374-1.352-2.344-1.352-2.975c0-0.624,0.67-1.385,1.522-1.702l6.113-2.259c0.847-0.311,1.267-1.257,0.962-2.095 l-5.09-13.779C119.213,46.086,118.257,45.635,117.411,45.955z M82.332,84.938c0,0,3.964-1.985,2.326-5.854 c-0.731,0.131-2.826,0.518-4.46,0.733c-1.632,0.22-3.06-0.773-3.361-1.589c-0.298-0.81,0.587-2.284,0.219-2.75 c-0.368-0.469-1.602-1.821-1.172-2.98c0.436-1.16,0.226-1.76,0.226-1.76s-2.372-0.459-2.588-1.322 c-0.213-0.864,3.23-6.153,3.23-6.153s-0.73-1.291-0.904-1.982c-0.17-0.682,0-4.391,2.232-8.601 c2.238-4.214,7.359-5.724,14.197-4.862c6.845,0.861,10.875,7.764,10.882,11.916c0.036,8.254-5.815,12.039-5.889,15.013 c-0.134,5.331,5.925,10.196,5.925,10.196H82.332V84.938z"/> </g> </g> </g>
</svg>